<!DOCTYPE svg PUBLIC "-//W3C//DTD SVG 1.1//EN" "http://www.w3.org/Graphics/SVG/1.1/DTD/svg11.dtd">

<!-- Uploaded to: SVG Repo, www.svgrepo.com, Transformed by: SVG Repo Mixer Tools -->
<svg width="800px" height="800px" viewBox="0 0 20 20" version="1.1" xmlns="http://www.w3.org/2000/svg" xmlns:xlink="http://www.w3.org/1999/xlink">
 <!-- <rect width="100%" height="100%" fill="#ffffff" /> -->
<g id="SVGRepo_bgCarrier" stroke-width="0"/>

<g id="SVGRepo_tracerCarrier" stroke-linecap="round" stroke-linejoin="round"/>

<g id="SVGRepo_iconCarrier"> <title>phone_desktop [#206]</title> <desc>Created with Sketch.</desc> <defs> </defs> <g id="Page-1" stroke="none" stroke-width="0.5" fill="none" fill-rule="evenodd"> <g id="Dribbble-Light-Preview" transform="translate(-340.000000, -7239.000000)" fill="#ffffff"> <g id="icons" transform="translate(56.000000, 160.000000)"> <path d="M284,7083 L286,7083 L286,7081 L302,7081 L302,7091 L295,7091 L295,7099 L301,7099 L301,7097 L297,7097 L297,7093 L304,7093 L304,7079 L284,7079 L284,7083 Z M286,7097 L292,7097 L292,7086 L286,7086 L286,7097 Z M284,7099 L294,7099 L294,7084 L284,7084 L284,7099 Z M288.042,7095 L290.042,7095 L290.042,7093 L288.042,7093 L288.042,7095 Z" id="phone_desktop-[#206]"> </path> </g> </g> </g> </g>

</svg>